<svg xmlns="http://www.w3.org/2000/svg" viewBox="0 0 147 40"><path fill="#FFF" d="M15.1 0c0 .2.1.3.1.5.3.6 1.4.9.2 1.8-.6.5-1.1.9-1.8.9-.6 0-1.3-.1-1.7.6-.1.3-.5.2-.8.3-1 .2-1.7 1.2-2.2 2.1-.9 1.7-.7 3.5-1.3 5.2-.4 1.2-.3 2.6-.9 3.6-.7 1.3-.1 3-.9 4.2-.8 1.4-.7 2.7-.8 4-.1.7-1.1.9-.9 1.8.1.3-.1.7.3.8.3.1.4-.3.6-.4.9-.6 1-1.5 1-2.4 0-.9.8-1.5 1.3-2.1.7-.9 1.5-1.7 2.4-2.4.9-.7 1.8-1.3 2.8-1.8 2.5-1.3 5-.8 7.6-.7 1.5 0 2.8.9 4.1 1.7 1.4.9 2.4 2.1 3.5 3.2.5.5 1.3 1.2 1.3 2 .1 1 .2 1.8 1 2.5.2.2.3.4.6.4.3-.1.4-.3.3-.5-.1-1.1 1.2-1.8 1.1-3 0-.5.7-.3 1.1-.3.4 0 .7 0 .8.5.1.6.1 1.2.9 1.5.3.1.2.7.1 1-.1 1.7 0 3.4-.1 5.1-.1 1.3.8 2 1.3 2.7.8 1.1 1.9 1.9 2.8 2.8.1.1.1.1.2.1 1.3-.1 2.4.6 3.5 1 .7.2 1.6.3 2.1-.6.1-.1.4-.2.7-.2 2.1.1 3.1-1.5 4.3-2.8 1.7-1.8 2.1-4 1.9-6.4-.1-.7-.5-1.3-.7-1.9-.4-1.5-1.5-2.3-2.3-3.4-.4-.5-1.1-.6-1-1.5.2-1.2 1.2-2.2 2.4-2h.2c.5.1 3.4 3.2 3.5 3.8.1.5 0 1 .7 1.1.4.1.3.6.4.9.1.5.1.9.2 1.4.1.5.5.6.9.6.2 0 .5 0 .6-.3.1-.4-.1-.6-.4-.8-.2-.1-.3-.4-.3-.6.1-2.3-1.4-4.2-1.2-6.5.1-.6 0-1.2-.7-1.7-.5-.3-.2-1.1-.3-1.7-.1-.8.3-1.9-.8-2.4-.1 0-.1-.2-.1-.3.1-1.8-.8-3.3-1.1-5-.2-1.2-1.2-1.9-2.2-2.5-1.3-.7-2.6-.8-4-1.1-.9-.2-.8-1-.8-1.6 0-.4.1-.9.2-1.3h6c0 .3-.1.8.4.8 1.7 0 2.2 1.6 3.3 2.4.6.4 1 1.6 1 2.2 0 2.2 1.5 4.1 1.4 6.3 0 .5 0 1 .6 1.3.4.3.3.9.3 1.3.1 1-.2 2 .7 3 .4.4.2 1.4.2 2.2 0 .5 0 1.1.6 1.4.5.3.3 1 .4 1.6.2.9 0 1.7.7 2.7.7 1.1.7 2.7.1 4.2-.2.5-.7.5-1.1.5h-3.2c-.8 0-1.3.2-1.3 1.1 0 .9-.6 1.6-.9 2.4-.7 1.8-1.9 2.8-3.2 4-.7.7-1.4 1.6-2.5 1.6-.7 0-.6.5-.6.9h-9.1c0-.3 0-.8-.4-.8-.9 0-1.4-.8-2.1-1-2.3-.8-3-3-4.5-4.5.3-1.3-1.2-2-1.1-3.2 0-.2-.1-.5-.4-.5-.2 0-.4 0-.5.3-.5.9-1.2 1.7-1 2.8 0 .3 0 .6-.2.8-.8.7-1.5 1.4-1.9 2.4-.1.2-.2.5-.4.5-1.6.4-2.3 2.3-4.1 2.3-.3 0-.3.5-.3.8h-9.1c0-.3.1-.8-.4-.9-.8-.1-1.4-.3-2-1-.6-.7-1-2.2-.3-2.9.3-.4 2.4-.5 2.7-.1 1.2 1.3 3 1.1 4.5 1.6 1.3.4 2.6-1.2 4.2-1 0 0 .1 0 .1-.1.5-1.1 1.8-1.5 2.5-2.5 1-1.3 1.8-2.6 1.7-4.2 0-1 0-2.1-.1-3.1 0-.2 0-.6-.1-.7-1.1-.5-.6-2-1.7-2.6-.3-.1-.8-.4-1-.8-.7-1-1.6-1.7-2.9-1.8-.8-.1-1.6.1-2.3-.6-.1-.1-.4-.1-.4 0-1.1 1.4-3.1.5-4.4 2-.7.8-1.9 1.5-2.4 2.3-.6 1.3-1.6 2.7-1.2 4.3.1.4.1.9-.3 1.2-.8.5-1.4 1.1-2 1.7-.5.5-1.3.9-1.8 0-.2-.4-.4-.5-.8-.5H0v-6c.8.2 1-.3.9-1-.1-2.2 1.4-4 1.2-6.2 0-.2.2-.5.4-.7.3-.2.3-.5.3-.8.2-1.3.5-2.5.9-3.7.5-1.6 1-3.4 1.2-5.2.1-1.3.9-2.3 1.4-3.2.5-.9 1.4-2.3 3-2.3.5 0 .5-.5.5-.8 1.8-.1 3.6-.1 5.3-.1zm88 40c-.2-.6-.3-1.3-.3-2V18.8c0-1.6 1.3-2.5 2.8-1.8.6.2.8.9 1.2 1.3 1.2 1.2 2.2 2.8 3.2 4.2.7 1 1.7 1.8 2.5 2.7.5.6.7 1.4 1.3 2.1.8.9 1.6 1.8 2.3 2.7.7.8 1 1.8 1.8 2.6.4.4 1.1.5 1.3 1.2.1.2.4-.1.4-.4V18.7c0-.8-.3-1.7 1.1-1.7 1.4.1 1.9.4 2 1.8v18.5c0 .8.2 1.7-.7 2.2-.1.1-.1.4-.1.7h-2.2c-.1-.3.1-.7-.3-.9-1.2-.5-2-1.7-2.5-2.7-.9-1.8-2.5-2.9-3.6-4.5-.8-1.2-1.6-2.6-2.8-3.5-.7-.5-.8-1.6-1.3-2.1-.9-.8-1.3-2.1-2.5-2.6-.3-.1-.1-.9-.7-.7-.5.2-.3.8-.3 1.2v13.5c0 .8 0 1.5-.3 2.2-.5-.1-1.4-.1-2.3-.1zm25.7 0c-.2-7.2-.1-14.4-.1-21.6 0-1.4 1-2.2 2-1.4.6.5 1.3 1 1.3 2.1-.1 2.6 0 5.3 0 7.9 0 .6-.3 1.5.3 1.7.6.2 1-.7 1.4-1.1.9-1 1.9-1.8 2.7-2.7.8-.9 1.7-1.6 2.5-2.6 1-1.2 2.2-2.2 3.3-3.3.6-.6 1.4-1 1.8-1.8.4-.8 2.4-.2 3.1.8v1c-.4.1-.8.1-1.1.6-.3.6-.8 1.2-1.3 1.5-1 .6-1.7 1.6-2.5 2.4-.9.8-1.7 1.8-2.6 2.6-.3.3-.4.5-.5.9-.3.8.3 1 .8 1.4.9.7 1.1 1.9 2 2.7.7.6 1.4 1.3 1.9 2.1.5.7 1.2 1.3 1.6 2.2.3.6.7 1.6 1.8 1.6v1c0 .7.3 1.7-.1 2.1-.4.4-1.4.1-2.1.1 0-.2 0-.5-.1-.6-1.1-1.1-2-2.3-3.1-3.3-1.2-1.1-1.7-2.6-2.8-3.7-.8-.8-1.6-1.5-2.2-2.4-.2-.3-1.1-.3-1.5.2-.5.8-1.3 1.1-1.8 1.8-.7.9-1.8 1.6-1.4 3v.2c-.2 1.4.6 3.1-.9 4.2-.1.1-.1.3-.1.5-.9-.1-1.6-.1-2.3-.1zM72 40c0-7 0-14-.1-21 0-2.1.1-2.1 2.1-2.1 3.1 0 6.2-.1 9.2.1 1.5.1 2.5 1 3.6 1.7.4.3.9.5 1.3 1 1.7 2.5.7 5.2.8 7.9 0 .6-.7 1-1.1 1.4-2.1 2.3-4.8 3.4-8 3.1-1-.1-2.1 0-3.1 0-1.6 0-1.6 0-1.6 1.6 0 2.1.2 4.3-.3 6.4-.9-.1-1.9-.1-2.8-.1zm3.1-15.6v3.3c0 .8.3 1.1 1 1.1 1.8 0 3.7-.1 5.5 0 1.2 0 1.9-1 3-1.2.1 0 1.2-.7 1.1-1.5-.1-1.6.7-3.3-.9-4.5-.7-.6-1.2-1.5-2.3-1.5h-6.6c-.7 0-.9.3-.9.9.1 1.1.1 2.3.1 3.4zM94 40c-.4-2.8-.2-5.6-.2-8.3V18.5c0-.8-.1-1.6 1.2-1.6 1.5 0 2 .2 2 1.5v19.9c0 .4 0 .8-.6.9-.5.1-.4.5-.5.9-.6-.1-1.2-.1-1.9-.1z"/><path fill="#D32757" d="M95.5 6.1c.3 0 .4.2.4.4.1 1.5 1 2.2 2.4 2.5.2.1.5.1.5.4 0 .4-.3.4-.5.5-1 .6-2.3.9-2.3 2.5 0 .6-.6.7-.8.3-.8-1.2-1.9-2-3-2.9-.4-.4-.2-.8.4-.9 1.4-.2 2.1-1.1 2.5-2.3 0-.2 0-.5.4-.5zm-52.6 9.8c0-.4 0-.8.4-.9 1.5-.3 2.4-1.3 2.8-2.7.1-.3.3-.3.6-.3s.4.3.4.5c.1 1.4 1 2.2 2.3 2.4.4.1.8.2.7.8-.1.5 0 1.1-.7 1.2-1.3.2-2.2 1-2.3 2.4 0 .3-.1.6-.5.6s-.4-.2-.5-.5c-.4-1.2-1-2.3-2.5-2.5-.7 0-.6-.5-.7-1z"/><path fill="#FFF" d="M41 20c-1.1.1-1.1-1.1-1.9-1.4-.1 0-.1-.3-.1-.3-2-.7-.6-1.1.1-1.7.5-.5.6-.3 1.1-.1 1.1.4 1.9 1.6 3.3 1.5.3 0 .5.1.5.5 0 .2 0 .6-.3.6-1.1-.1-1.8.9-2.7.9z"/><path fill="#D32757" d="M35.3 22c-.3-.4-.7-.9-1.3-1.3-.1 0-.1-.1-.1-.2 0-.7-1.9-.5-.8-1.4.5-.4.7-1.1 1.4-1.2.3 0 .3-.3.4-.5.1-.3.3-.4.5-.4.4 0 .5.3.5.6 0 .9.5 1.3 1.4 1.4.2 0 .5.1.5.4 0 .3-.1.5-.4.5-1 .2-1.6.6-1.5 1.7.1.3-.2.4-.6.4zM8.1 31.8c.5 0 .9 0 1 .6.1.7.8.4 1.2.6.3.1.7.1.6.6 0 .4-.3.5-.6.5-.8 0-1.2.5-1.4 1.2-.1.6-.5.7-1 .7-.6 0-.9-.2-.9-.8 0-.8-.6-1-1.2-1.2-.2-.1-.5-.1-.5-.4 0-.4.4-.3.6-.5.5-.2 1.2-.2 1.3-1 0-.4.6-.3.9-.3z"/></svg>